<svg id="MBS_Logo" data-name="MBS Logo" xmlns="http://www.w3.org/2000/svg" viewBox="0 0 136.06 49.32"><defs><style>.cls-1{fill:#f39500;}.cls-1,.cls-2{fill-rule:evenodd;}.cls-2{fill:#004a96;}</style></defs><title>MBS_Logo_RGB_pos</title><g id="SOLUTIONS"><path class="cls-1" d="M36.28,49.32h-.4a4.34,4.34,0,0,1-.53,0,4,4,0,0,1-2.6-1.44,5.21,5.21,0,0,1-1.14-3.48A5.15,5.15,0,0,1,32.85,41a4.45,4.45,0,0,1,6.46,0,4.81,4.81,0,0,1,.87,1.44,5.74,5.74,0,0,1,.37,2,5.26,5.26,0,0,1-1.14,3.48A4.14,4.14,0,0,1,36.28,49.32ZM35.23,41a2.13,2.13,0,0,0-.55.24,3,3,0,0,0-1.28,1.91,5.32,5.32,0,0,0-.15,1.43A4.1,4.1,0,0,0,34,47a2.52,2.52,0,0,0,2.22,1,2.47,2.47,0,0,0,2-1.15,3.62,3.62,0,0,0,.48-1.11,5,5,0,0,0,.15-1.44,4.09,4.09,0,0,0-.76-2.41,2.52,2.52,0,0,0-2.23-1A3,3,0,0,0,35.23,41Z"/><path class="cls-1" d="M75.86,49.32h-.4a4.53,4.53,0,0,1-.53,0,4.2,4.2,0,0,1-1.31-.41,4.29,4.29,0,0,1-2.11-2.52,5.74,5.74,0,0,1-.31-2A5.09,5.09,0,0,1,72.43,41a4.44,4.44,0,0,1,6.46,0,4.62,4.62,0,0,1,.87,1.44,5.29,5.29,0,0,1,.37,2A5.23,5.23,0,0,1,79,47.83,4.16,4.16,0,0,1,75.86,49.32ZM75.14,41a2.44,2.44,0,0,0-1.68,1.11,4.49,4.49,0,0,0-.63,2.56A4.85,4.85,0,0,0,73.06,46a3.47,3.47,0,0,0,.54,1,2.57,2.57,0,0,0,2.23,1,2.69,2.69,0,0,0,2.52-2.26,5.83,5.83,0,0,0,.14-1.43,4.42,4.42,0,0,0-.22-1.37,3.47,3.47,0,0,0-.54-1,2.5,2.5,0,0,0-2.22-1Z"/><path class="cls-1" d="M97.56,44.17a7.72,7.72,0,0,0-1.36-.41l-1.42-.37c-.69-.18-1.37-.42-1.37-1.29s.72-1.14,1.48-1.19a2.07,2.07,0,0,1,1.94.7,2,2,0,0,1,.26.64c.06.26.25.29.58.31h.43a1.05,1.05,0,0,0,.4,0,.36.36,0,0,0,.21-.24.79.79,0,0,0,0-.37,2.71,2.71,0,0,0-1-1.63,4.08,4.08,0,0,0-2.8-.74,3.54,3.54,0,0,0-2.47,1.08,2.32,2.32,0,0,0-.57,1.22,2.66,2.66,0,0,0,.2,1.51,2.31,2.31,0,0,0,.88.9,5,5,0,0,0,1.3.48c.68.17,1.43.34,2.11.56.47.16.85.29,1,.76a1.46,1.46,0,0,1,0,.78c-.21.91-1.24,1.23-2.4,1.1a2,2,0,0,1-1.81-1.31c0-.11,0-.23-.08-.36a.37.37,0,0,0-.19-.26,1.09,1.09,0,0,0-.39,0l-.41,0a.64.64,0,0,0-.36.09.61.61,0,0,0-.24.63,2.76,2.76,0,0,0,2,2.41,5.53,5.53,0,0,0,1.54.24h.48a4.43,4.43,0,0,0,2.4-.72,2.57,2.57,0,0,0,1.09-2v-.3A2.41,2.41,0,0,0,97.56,44.17Z"/><path class="cls-1" d="M67.76,40.21a2.75,2.75,0,0,0,0,.51v7.41a2.9,2.9,0,0,0,0,.52.58.58,0,0,0,.3.38,1.27,1.27,0,0,0,.61.07,1.05,1.05,0,0,0,.31,0,.6.6,0,0,0,.4-.63c0-1.86,0-3.6,0-5.48V40.91a3.78,3.78,0,0,0,0-.68.58.58,0,0,0-.34-.4,2,2,0,0,0-.7,0A.56.56,0,0,0,67.76,40.21Z"/><path class="cls-1" d="M57.29,46.57a8.08,8.08,0,0,0,.07-1.5V41.94c0-.52,0-1,0-1.57a.55.55,0,0,0-.29-.49.56.56,0,0,0-.3-.09h-.39a.58.58,0,0,0-.53.25c-.13.17-.12.35-.12.66v4.71a4.15,4.15,0,0,1-.19,1.38,1.86,1.86,0,0,1-2,1.12,1.86,1.86,0,0,1-2.16-1.77c0-.23,0-.48,0-.74,0-.51,0-1.06,0-1.57V40.7c0-.15,0-.28,0-.39a.65.65,0,0,0-.12-.28.57.57,0,0,0-.53-.24h-.4a.56.56,0,0,0-.58.58c0,.26,0,.53,0,.79v3.92a9.1,9.1,0,0,0,.07,1.5,3,3,0,0,0,1.14,2,4.06,4.06,0,0,0,2.38.75h.46C55.74,49.22,57,48.34,57.29,46.57Z"/><path class="cls-1" d="M87.91,46.55l-3.77-6.1c-.21-.33-.35-.66-.89-.66h-.39a2.54,2.54,0,0,0-.39,0c-.33,0-.5.26-.5.64s0,.76,0,1.13c0,2.29,0,4.55,0,6.82a.79.79,0,0,0,.1.46.59.59,0,0,0,.35.23,1.94,1.94,0,0,0,.54,0,.6.6,0,0,0,.57-.57c0-.18,0-.38,0-.57,0-1.92,0-3.8,0-5.69,0,0,0,0,.06.06,1.21,1.94,2.41,3.89,3.61,5.83.11.19.24.39.37.58a.76.76,0,0,0,.59.37,3.45,3.45,0,0,0,.46,0,2.13,2.13,0,0,0,.45,0,.6.6,0,0,0,.45-.52,3.49,3.49,0,0,0,0-.46c0-2.56,0-5.11,0-7.65a.64.64,0,0,0-.36-.61,1.05,1.05,0,0,0-.42-.05,1.2,1.2,0,0,0-.44,0,.52.52,0,0,0-.26.21,2,2,0,0,0-.08.88c0,1.92,0,3.83,0,5.72C88,46.64,87.93,46.58,87.91,46.55Z"/><path class="cls-1" d="M43.87,41.4c0-.35,0-.72,0-1a.56.56,0,0,0-.49-.55,1.51,1.51,0,0,0-.3,0h-.31a.61.61,0,0,0-.54.66V48a5.35,5.35,0,0,0,0,.58.58.58,0,0,0,.36.46,2.72,2.72,0,0,0,.78,0h4.05a2.77,2.77,0,0,0,.78,0,.59.59,0,0,0,.38-.43,1.33,1.33,0,0,0,0-.4.56.56,0,0,0-.1-.3A.59.59,0,0,0,48,47.7H43.87Z"/><path class="cls-1" d="M65.39,41.2a1.84,1.84,0,0,0,.34,0,.58.58,0,0,0,.48-.58c0-.49-.15-.79-.6-.81H59.24a.7.7,0,0,0-.43.21.69.69,0,0,0-.14.48.75.75,0,0,0,.12.49.59.59,0,0,0,.38.23,4.14,4.14,0,0,0,.61,0h1.84v6.53a3,3,0,0,0,.07,1A.61.61,0,0,0,62,49a1.07,1.07,0,0,0,.47.06,1.12,1.12,0,0,0,.48-.06.56.56,0,0,0,.28-.27,1.15,1.15,0,0,0,.06-.48c0-2.36,0-4.75,0-7.09Z"/><path class="cls-1" d="M22.79,46.45a1,1,0,0,1,0,.18c.28,1.77,1.64,2.6,3.6,2.69h.46a4.12,4.12,0,0,0,2.63-.91,2.51,2.51,0,0,0,.71-1.06,2.92,2.92,0,0,0,.07-1.56A2.44,2.44,0,0,0,28.51,44l-2.1-.56c-.7-.18-1.46-.35-1.62-1a1.08,1.08,0,0,1,.48-1.23,2.46,2.46,0,0,1,1.47-.27,1.65,1.65,0,0,1,1.62,1c0,.11.05.24.09.34s.33.24.64.25l.43,0a.73.73,0,0,0,.38,0,.36.36,0,0,0,.17-.27,1,1,0,0,0-.05-.38,2.31,2.31,0,0,0-.1-.34,3.18,3.18,0,0,0-2.55-1.9,5.31,5.31,0,0,0-1.64,0A3.18,3.18,0,0,0,23.5,41a2.51,2.51,0,0,0-.38,1.4,2.19,2.19,0,0,0,1.44,2.11,10,10,0,0,0,1.37.41c.45.12.93.23,1.4.37a2.13,2.13,0,0,1,1.19.59,1.19,1.19,0,0,1,.21.67,1.39,1.39,0,0,1-1.25,1.43,3.91,3.91,0,0,1-1.6,0,1.74,1.74,0,0,1-1.4-1.26c0-.12,0-.25-.08-.36a.36.36,0,0,0-.21-.24,1.23,1.23,0,0,0-.4,0h-.44A.73.73,0,0,0,23,46a.37.37,0,0,0-.18.27v.15Z"/></g><g id="MASTER_BUILDERS" data-name="MASTER BUILDERS"><path class="cls-2" d="M136.06,30.53a4.1,4.1,0,0,0-2.79-3.7,14.84,14.84,0,0,0-2.44-.8,25.42,25.42,0,0,1-2.57-.67,2.6,2.6,0,0,1-1-.57.86.86,0,0,1-.28-.53,1.22,1.22,0,0,1,.12-.68c.36-.68,1.37-.87,2.42-.77a2.83,2.83,0,0,1,1.23.39,1.53,1.53,0,0,1,.68.95.72.72,0,0,0,.35.46,1.34,1.34,0,0,0,.7.11c.52,0,2.14,0,2.36,0a.86.86,0,0,0,.68-1,3,3,0,0,0-.17-.65A4.34,4.34,0,0,0,134,21.15a5.92,5.92,0,0,0-2.1-1.15,9.49,9.49,0,0,0-2.85-.39,8.72,8.72,0,0,0-2.77.47,5.88,5.88,0,0,0-2.07,1.17,4.07,4.07,0,0,0-1.38,3.47,3.77,3.77,0,0,0,1.81,3.05,16.09,16.09,0,0,0,4.8,1.69,12.72,12.72,0,0,1,1.24.38c.55.22,1.14.54,1.26,1.17a1.36,1.36,0,0,1-.86,1.52,4.07,4.07,0,0,1-1.31.31,5.14,5.14,0,0,1-1.5-.1,2.09,2.09,0,0,1-1.67-1.57,1.07,1.07,0,0,0-.24-.57.77.77,0,0,0-.58-.24,19.07,19.07,0,0,0-2.31-.09.83.83,0,0,0-.86.76,2.14,2.14,0,0,0,.1.71,5.18,5.18,0,0,0,1.06,2.18A6.42,6.42,0,0,0,128.18,36a11.73,11.73,0,0,0,3-.11,5.71,5.71,0,0,0,4.12-2.36,4.55,4.55,0,0,0,.5-1.12,5.55,5.55,0,0,0,.22-1.41v-.42S136.06,30.55,136.06,30.53Z"/><path class="cls-2" d="M113.13,29.84a6.44,6.44,0,0,1,1.76.13c1.72.52,1.82,2.52,1.82,4.77a1.43,1.43,0,0,0,0,.43.73.73,0,0,0,.46.48,3.8,3.8,0,0,0,.7.06c.64,0,2.25,0,2.56,0a.25.25,0,0,0,.24-.27c0-.37,0-.76,0-1.15,0-.76-.09-1.55-.12-2.3a3.7,3.7,0,0,0-.18-1,4.05,4.05,0,0,0-1.94-2.59l-.15-.08c-.09-.05,0-.08.09-.1A3.64,3.64,0,0,0,119.9,27a4.17,4.17,0,0,0,.79-2.13,4.53,4.53,0,0,0-.39-2.47,4.05,4.05,0,0,0-1.4-1.53,6.56,6.56,0,0,0-3.43-.95H108.9a5.93,5.93,0,0,0-.73,0,1.13,1.13,0,0,0-1,.71,2.27,2.27,0,0,0-.07.77V33.81a5.44,5.44,0,0,0,0,.82,1.08,1.08,0,0,0,.77.89c.22.06,1.85,0,2.42,0a1,1,0,0,0,.65-.17.74.74,0,0,0,.26-.57c0-1.62,0-3.34,0-5Zm-1.88-6.7h2.68c.3,0,.6,0,.88,0a2.31,2.31,0,0,1,1.29.49,1.51,1.51,0,0,1,.5,1.27,1.66,1.66,0,0,1-1.8,1.77c-.58,0-1.18,0-1.78,0h-1.78V23.16A0,0,0,0,1,111.25,23.14Z"/><path class="cls-2" d="M103.26,23.14h.39a.87.87,0,0,0,.7-.51,2,2,0,0,0,.08-.74v-.81a1.28,1.28,0,0,0-.15-.67,1.14,1.14,0,0,0-1.07-.55H93.46a2.11,2.11,0,0,0-.71.09,1.36,1.36,0,0,0-.79.85,2.35,2.35,0,0,0-.07.74c0,4.06,0,8.11,0,12.17a4,4,0,0,0,.06.8,1.31,1.31,0,0,0,1.35,1.06H103a3.85,3.85,0,0,0,.78,0,1.05,1.05,0,0,0,.81-.81,3.18,3.18,0,0,0,0-.77v-.82a1.24,1.24,0,0,0-.13-.68.86.86,0,0,0-.45-.36,2.55,2.55,0,0,0-.76-.05H96v-3h5.22a3.12,3.12,0,0,0,1-.06.85.85,0,0,0,.52-.53,3.8,3.8,0,0,0,.05-1,3.5,3.5,0,0,0-.05-1,.82.82,0,0,0-.51-.53,3.08,3.08,0,0,0-1-.06H96c0-.92,0-1.85,0-2.75Z"/><path class="cls-2" d="M75.53,20.65a2,2,0,0,0-.12.82V33.7a3.41,3.41,0,0,0,.06.88,1.24,1.24,0,0,0,1,.92c.4.08,5.93.06,6.52,0a7.58,7.58,0,0,0,4.21-1.45,7,7,0,0,0,2.6-4.91,12,12,0,0,0-.09-3.5,6.65,6.65,0,0,0-2.92-4.6,8.12,8.12,0,0,0-4.44-1.2c-1.55,0-5.37,0-5.66,0A1.32,1.32,0,0,0,75.53,20.65Zm4,2.73c.91,0,1.8-.05,2.61,0,2.44.22,3.65,1.61,3.65,4.29,0,1.77-.46,3.05-1.58,3.72a5,5,0,0,1-2.07.57c-.8.07-1.7,0-2.6,0,0-2.85,0-5.76,0-8.64C79.5,23.39,79.49,23.38,79.5,23.38Z"/><path class="cls-2" d="M67,21.78a4.19,4.19,0,0,0,0-.89,1.34,1.34,0,0,0-.9-1,3.37,3.37,0,0,0-.87-.06c-.33,0-.66,0-1,0a1.38,1.38,0,0,0-.86.32,1.33,1.33,0,0,0-.44.75,3.49,3.49,0,0,0,0,.57V34a3.15,3.15,0,0,0,.09,1.1.81.81,0,0,0,.69.5c.36,0,.78,0,1.18,0H72a3.37,3.37,0,0,0,.57,0,1.31,1.31,0,0,0,1-.78,5.13,5.13,0,0,0,.1-1.65,1.43,1.43,0,0,0-.06-.53.83.83,0,0,0-.67-.52,3.58,3.58,0,0,0-.58,0H67Z"/><path class="cls-2" d="M55.88,20.22a1.35,1.35,0,0,0-.42.81c0,.39,0,.82,0,1.22V33.38a5.58,5.58,0,0,0,0,1.19,1.3,1.3,0,0,0,.51.73,1.52,1.52,0,0,0,1,.26h1.23a1.28,1.28,0,0,0,.89-.34,1.3,1.3,0,0,0,.42-.81,4,4,0,0,0,0-.6V22.06a5.58,5.58,0,0,0,0-1.19,1.21,1.21,0,0,0-.5-.74,1.47,1.47,0,0,0-1-.26c-.4,0-.88,0-1.24,0A1.35,1.35,0,0,0,55.88,20.22Z"/><path class="cls-2" d="M38.87,20.32a1.35,1.35,0,0,0-.34,1v5.27c0,.89,0,1.77,0,2.64a7.9,7.9,0,0,0,1,4.23,5.07,5.07,0,0,0,3.13,2.14,11.05,11.05,0,0,0,2.33.3c2.67.08,4.69-.6,5.85-2.06a6.83,6.83,0,0,0,1.29-4c0-.85,0-1.74,0-2.62V22a3.52,3.52,0,0,0-.09-1.22A1.3,1.3,0,0,0,51,19.87c-.2,0-1.54,0-2,0a.84.84,0,0,0-.82.49,3.47,3.47,0,0,0-.08,1.24v5.27c0,.88,0,1.81,0,2.64a3.44,3.44,0,0,1-.59,2.05,2.42,2.42,0,0,1-1.83.8,3.35,3.35,0,0,1-2.15-.47,2.42,2.42,0,0,1-.88-1.76,24.33,24.33,0,0,1,0-2.59V21a1.62,1.62,0,0,0-.07-.57.85.85,0,0,0-.81-.52c-.2,0-1.62,0-2,0A1.24,1.24,0,0,0,38.87,20.32Z"/><path class="cls-2" d="M35.93,25.08a3.81,3.81,0,0,0,.24-1.58A3.88,3.88,0,0,0,35.8,22,4.28,4.28,0,0,0,32.34,20a12.42,12.42,0,0,0-1.77-.1h-6a1.32,1.32,0,0,0-1.33.92,2,2,0,0,0-.07.68V34.21a1.28,1.28,0,0,0,.14.61,1.38,1.38,0,0,0,.83.68,3,3,0,0,0,.69,0h5.25a14.38,14.38,0,0,0,2.81-.19,4.47,4.47,0,0,0,3.51-2.5,5.38,5.38,0,0,0,.4-2.56A3.7,3.7,0,0,0,34.12,27,3.81,3.81,0,0,0,35.93,25.08ZM27.26,23h3.17c1,0,1.66.51,1.66,1.51a1.35,1.35,0,0,1-.48,1.11,1.83,1.83,0,0,1-1.19.39H27.25V23Zm0,5.65H30c.31,0,.61,0,.9,0,1.11.1,1.81.61,1.84,1.8s-.75,1.69-1.85,1.78c-.57,0-1.2,0-1.81,0H27.25V28.69S27.25,28.67,27.26,28.67Z"/><path class="cls-2" d="M12.81,20.93a5.94,5.94,0,0,0-.78-.72,2,2,0,0,0-1.15-.34,2,2,0,0,0-2,1.76,2,2,0,0,0,.39,1.43c.28.37,4.61,4.62,4.61,4.64L9.78,31.83a3.79,3.79,0,0,0-.68.8,2.06,2.06,0,0,0-.21,1.24,2,2,0,0,0,1.38,1.61,2.23,2.23,0,0,0,1.28,0,2.48,2.48,0,0,0,.89-.61c2-2,3.58-3.63,5.61-5.65a2.24,2.24,0,0,0,.61-.88,2,2,0,0,0,0-1.27,2.32,2.32,0,0,0-.61-.88Z"/><path class="cls-2" d="M3.93,20.93a5.29,5.29,0,0,0-.77-.72A2,2,0,0,0,2,19.87a2,2,0,0,0-2,1.76,2,2,0,0,0,.39,1.43c.28.37,4.61,4.62,4.61,4.64L.91,31.83a3.79,3.79,0,0,0-.68.8A2.06,2.06,0,0,0,0,33.87,2,2,0,0,0,1.4,35.48a2.23,2.23,0,0,0,1.28,0,2.48,2.48,0,0,0,.89-.61c2-2,3.58-3.63,5.61-5.65a2.24,2.24,0,0,0,.61-.88,2,2,0,0,0,0-1.27,2.32,2.32,0,0,0-.61-.88Z"/><path class="cls-2" d="M121,.61a4,4,0,0,0-1.21.88,3.71,3.71,0,0,0-.84,1.26,4.25,4.25,0,0,0-.33,1.76A4,4,0,0,0,119,6.2a3.89,3.89,0,0,0,.88,1.21,4.23,4.23,0,0,0,4.72.77,4.16,4.16,0,0,0,2-2.14A4.05,4.05,0,0,0,127,4.29a4.14,4.14,0,0,0-.79-2.35,3.72,3.72,0,0,0-.48-.57,4.52,4.52,0,0,0-1.26-.83,4,4,0,0,0-1.76-.33A4.31,4.31,0,0,0,121,.61Zm1.63.66a3.06,3.06,0,0,1,2.31.83,3.07,3.07,0,0,1,1,2.12,3.12,3.12,0,0,1-3,3.3,3.07,3.07,0,0,1-2.3-.82,3,3,0,0,1-1-2.12,3,3,0,0,1,.81-2.3,3.13,3.13,0,0,1,1.77-1Zm1.83,2.1a.93.93,0,0,0-.26-.62A1.59,1.59,0,0,0,123,2.4h-1.53c-.24,0-.2.27-.2.56V5.49a1.77,1.77,0,0,0,0,.41c.07.16.25.14.5.14a1.09,1.09,0,0,0,.37,0c.09-.06.07-.18.07-.35,0-.36,0-.6,0-1,.38,0,.77,0,1,.1a1,1,0,0,1,.27.82c0,.1,0,.26,0,.36s.29.1.49.1a2.46,2.46,0,0,0,.41,0,7,7,0,0,0,0-.93,1,1,0,0,0-.53-.79A.93.93,0,0,0,124.43,3.37Zm-2.2-.21c.34,0,.81-.08,1.06.07a.44.44,0,0,1,.09.62c-.2.23-.76.09-1.16.13v-.8S122.22,3.16,122.23,3.16Z"/><path class="cls-2" d="M108.4,10.33a5.87,5.87,0,0,1,1.79.15c1.45.49,1.74,2.1,1.74,4,0,.32,0,.64,0,1a.75.75,0,0,0,.75.69h2.9c.17,0,.28,0,.33-.16a1.75,1.75,0,0,0,0-.56c0-.61-.06-1.19-.09-1.75,0-.4,0-.79-.06-1.17a4.72,4.72,0,0,0-.16-1.06,4.06,4.06,0,0,0-2-2.7s-.1,0-.09-.07.09-.05.11-.06a3.67,3.67,0,0,0,1.55-1.2,4.28,4.28,0,0,0,.79-2.14,4.51,4.51,0,0,0-.4-2.47A4.65,4.65,0,0,0,112,.51a15.14,15.14,0,0,0-2.78-.15c-1.7,0-5.63,0-5.86,0a1.1,1.1,0,0,0-1,.74,2.55,2.55,0,0,0-.06.76V14.3a7.79,7.79,0,0,0,0,.85,1,1,0,0,0,.76.85,22.65,22.65,0,0,0,2.43,0,2.17,2.17,0,0,0,.38,0,.75.75,0,0,0,.54-.71c0-1.63,0-3.33,0-5Zm-1.92-6.7h1.79c.6,0,1.21,0,1.77,0,1,.09,1.8.62,1.79,1.77A1.64,1.64,0,0,1,110,7.16c-.58,0-3,0-3.55,0V3.65S106.47,3.63,106.48,3.63Z"/><path class="cls-2" d="M98.63,3.63c.14,0,.27,0,.38,0a.88.88,0,0,0,.71-.51,2.07,2.07,0,0,0,.07-.74V1.57a1.32,1.32,0,0,0-.14-.66A1.15,1.15,0,0,0,98.57.35H88.82a1.87,1.87,0,0,0-.71.1,1.32,1.32,0,0,0-.79.84,2.35,2.35,0,0,0-.07.74V14.2a4.83,4.83,0,0,0,.06.8,1.32,1.32,0,0,0,1.35,1.06h9.73a3.78,3.78,0,0,0,.77,0,1.07,1.07,0,0,0,.82-.8,3.92,3.92,0,0,0,0-.78v-.81a1.26,1.26,0,0,0-.12-.69.84.84,0,0,0-.46-.36,2.51,2.51,0,0,0-.75-.05H91.35v-3h5.22a3.14,3.14,0,0,0,1-.06A.8.8,0,0,0,98.07,9a3.41,3.41,0,0,0,.05-1,3.52,3.52,0,0,0-.05-1,.77.77,0,0,0-.51-.53,3.06,3.06,0,0,0-1-.06H91.35c0-.92,0-1.85,0-2.75Z"/><path class="cls-2" d="M84.66,3.87a1.12,1.12,0,0,0,.75-.52,1,1,0,0,0,.15-.48c0-.2,0-1.07,0-1.26A1.31,1.31,0,0,0,84.77.48,2.86,2.86,0,0,0,83.62.36H74.73c-.43,0-.85,0-1.27,0a1.33,1.33,0,0,0-1.32,1.08,6.33,6.33,0,0,0,0,1.16,1.75,1.75,0,0,0,.06.54,1.1,1.1,0,0,0,1,.74c.38,0,2.79,0,3.58,0v8.88c0,.6,0,1.2,0,1.78a1.36,1.36,0,0,0,.53,1.24A1.33,1.33,0,0,0,78,16a6.2,6.2,0,0,0,.89,0,7.71,7.71,0,0,0,.87,0,1.31,1.31,0,0,0,1-.75,1.53,1.53,0,0,0,.13-.75c0-.29,0-.58,0-.88,0-3.26,0-6.53,0-9.77h0C82,3.87,84.48,3.9,84.66,3.87Z"/><path class="cls-2" d="M64.3,0h.49a9.32,9.32,0,0,1,1.48.16,6,6,0,0,1,3.65,2,4.32,4.32,0,0,1,.79,1.64,1.17,1.17,0,0,1,0,.69.85.85,0,0,1-.36.45,1.38,1.38,0,0,1-.68.13c-.49,0-1.08,0-1.57,0-.28,0-.54,0-.8,0a.74.74,0,0,1-.51-.3,3.5,3.5,0,0,1-.23-.58,2.31,2.31,0,0,0-2.21-1A3.19,3.19,0,0,0,63,3.42a1.21,1.21,0,0,0-.74.88,1,1,0,0,0,.51,1.08,4.1,4.1,0,0,0,1.13.48c.85.26,1.74.43,2.59.66a11.94,11.94,0,0,1,2.4.85,4,4,0,0,1,2.49,4A4.5,4.5,0,0,1,69,15.44a7.58,7.58,0,0,1-2.42.82,11.21,11.21,0,0,1-3,.12,6.48,6.48,0,0,1-4.44-2A5.31,5.31,0,0,1,58,11.84a2.23,2.23,0,0,1-.05-.36.85.85,0,0,1,.81-.82,7.05,7.05,0,0,1,.79,0c.53,0,1.06.05,1.53.09a.88.88,0,0,1,.6.2,1.06,1.06,0,0,1,.27.55,2,2,0,0,0,1.63,1.61A5,5,0,0,0,66.34,13a1.4,1.4,0,0,0,.91-1.5c-.09-.65-.69-1-1.24-1.19a10.88,10.88,0,0,0-1.22-.39A17.14,17.14,0,0,1,60,8.2a3.81,3.81,0,0,1-1.84-3,4.1,4.1,0,0,1,1.33-3.5A7.48,7.48,0,0,1,64.3,0Z"/><path class="cls-2" d="M52.07,13.23a2,2,0,0,1,.35,0s0,0,0,.06c.18.48.33,1,.51,1.48l.24.74a.74.74,0,0,0,.5.5,5.23,5.23,0,0,0,1.13,0h1a1.7,1.7,0,0,0,.76-.09,1,1,0,0,0,.57-1.3c-.26-.74-4.89-13.07-5.08-13.51a1.26,1.26,0,0,0-.64-.67,2.06,2.06,0,0,0-.87-.12,16.33,16.33,0,0,0-2.41.07,1.29,1.29,0,0,0-.75.62c-.06.11-3.85,10.3-5,13.42a1.37,1.37,0,0,0-.09.78,1,1,0,0,0,1,.79h1.06s1.1,0,1.23,0a.69.69,0,0,0,.31-.15,1.29,1.29,0,0,0,.33-.6c.24-.7.48-1.35.72-2ZM49.7,4.71s1.22,3.73,1.77,5.49H47.91C48.51,8.37,49.09,6.52,49.7,4.71Z"/><path class="cls-2" d="M36.83,13.62c0,.54,0,1.07,0,1.59a.85.85,0,0,0,.76.83,9.24,9.24,0,0,0,2.26-.1,1.32,1.32,0,0,0,.76-.82,2.26,2.26,0,0,0,.07-.72V6.48c0-1.55,0-3.21,0-4.74A1.31,1.31,0,0,0,40.18.66,1.26,1.26,0,0,0,39.65.4a35.81,35.81,0,0,0-3.88,0,1.86,1.86,0,0,0-1,.56A2.39,2.39,0,0,0,34.23,2c-.32,1.27-1.81,7-2.24,8.66,0,.07,0,.21-.09.1-.09-.27-1.66-6.11-2.38-8.72a2.36,2.36,0,0,0-.31-.81A1.78,1.78,0,0,0,27.85.38c-.31,0-3,0-3.34,0a1.35,1.35,0,0,0-1.22.84,2.63,2.63,0,0,0-.1.93V14.41a2,2,0,0,0,.14.89,1.34,1.34,0,0,0,1.3.74c.47,0,1.05,0,1.53,0a.83.83,0,0,0,.86-.68,6.48,6.48,0,0,0,0-1V4.25s0-.1,0-.11,0,.06,0,.08c1,3.66,2,7.34,3,11a2.23,2.23,0,0,0,.13.39.85.85,0,0,0,.61.43A18,18,0,0,0,33,16a.8.8,0,0,0,.62-.43,4,4,0,0,0,.25-.8c.38-1.36,2.34-8.43,2.93-10.58,0,0,0-.09,0-.08C36.84,7.3,36.83,10.44,36.83,13.62Z"/></g></svg>